<?xml version="1.0" standalone="no"?>
<!DOCTYPE svg PUBLIC "-//W3C//DTD SVG 20010904//EN"
 "http://www.w3.org/TR/2001/REC-SVG-20010904/DTD/svg10.dtd">
<svg version="1.0" xmlns="http://www.w3.org/2000/svg"
 width="120.000000pt" height="120.000000pt" viewBox="0 0 120.000000 120.000000"
 preserveAspectRatio="xMidYMid meet">
<metadata>
Created by potrace 1.11, written by Peter Selinger 2001-2013
</metadata>
<g transform="translate(0.000000,120.000000) scale(0.100000,-0.100000)"
fill="#000000" stroke="none">
<path d="M780 1167 c-18 -14 -86 -152 -160 -324 -29 -68 -56 -123 -60 -123 -7
0 -13 5 -108 87 -75 66 -154 123 -168 123 -31 0 -203 -151 -216 -190 -3 -8 -2
-25 3 -37 15 -40 50 -29 115 37 32 33 61 56 65 52 4 -4 10 -58 14 -119 3 -62
8 -123 10 -135 2 -13 6 -61 9 -108 4 -47 9 -121 12 -165 7 -94 11 -114 31
-137 18 -21 56 -7 70 26 11 22 10 116 -1 224 -3 34 -8 88 -11 120 -11 137 -16
189 -21 215 -2 16 0 27 5 25 5 -1 46 -37 91 -78 120 -109 120 -109 137 -103 9
4 54 84 100 180 46 95 85 173 86 173 1 0 2 -30 3 -68 1 -69 11 -259 19 -367
14 -178 24 -208 67 -213 20 -2 31 4 44 23 14 22 16 41 10 132 -4 58 -8 109
-10 112 -2 3 -7 49 -10 102 -4 53 -8 105 -10 115 -2 11 -7 51 -10 89 -4 39 -9
84 -12 100 -3 17 -7 41 -8 55 -2 14 -7 52 -11 85 -11 90 -37 123 -75 92z"/>
</g>
</svg>
