<svg width="25" height="23" viewBox="0 0 25 23" fill="none" xmlns="http://www.w3.org/2000/svg">
<path fill-rule="evenodd" clip-rule="evenodd" d="M4.54897 1.59416C4.54775 1.59044 4.54658 1.58671 4.54544 1.58296L4.54897 1.59416ZM5.09981 3.28536L6.99151 9.09226C7.12562 9.50391 7.50939 9.78251 7.94233 9.78251H16.0423C16.4756 9.78251 16.8595 9.50354 16.9934 9.09151L18.8791 3.2876L20.7713 9.11151L21.9956 12.7364L11.9923 20.0063L2.02791 12.7646L5.09981 3.28536ZM22.1396 12.8108L22.059 12.6999C22.07 12.6855 22.0835 12.673 22.0989 12.6631L22.1858 12.7974L22.1396 12.8108ZM22.1628 12.8427L22.6423 13.5025L22.2058 12.8282L22.1628 12.8427ZM23.2126 14.3242L12.5802 22.0514C12.2297 22.3062 11.755 22.3062 11.4044 22.0514L0.754431 14.3114L0.74987 14.3081C0.437123 14.0781 0.20514 13.7551 0.0871071 13.3852C-0.0305217 13.0167 -0.0289709 12.6204 0.0914815 12.2528L3.75127 0.96351C3.75692 0.946108 3.76305 0.928865 3.76965 0.9118C3.84937 0.705674 3.9761 0.521013 4.13973 0.372501C4.40301 0.132847 4.74625 0 5.10233 0C5.45923 0 5.80323 0.13346 6.06675 0.374161C6.0737 0.380505 6.08055 0.386947 6.08732 0.393485C6.25789 0.55836 6.3844 0.763293 6.45535 0.989523L8.66829 7.78251H15.3158L17.5313 0.96351C17.5369 0.946108 17.5431 0.928865 17.5497 0.9118C17.6294 0.705671 17.7561 0.521009 17.9197 0.372501C18.183 0.132848 18.5263 0 18.8823 0C19.2392 0 19.5832 0.133459 19.8468 0.374161C19.8537 0.380505 19.8606 0.386947 19.8673 0.393485C20.038 0.558476 20.1646 0.763586 20.2355 0.990013L22.6716 8.4879L23.9397 12.2425C23.9418 12.2484 23.9437 12.2544 23.9456 12.2603C23.948 12.2678 23.9503 12.2754 23.9524 12.2829C24.0631 12.6629 24.0483 13.0685 23.9102 13.4394C23.7758 13.8003 23.5317 14.1097 23.2126 14.3242ZM17.9197 0.372501C17.9203 0.371949 17.921 0.371398 17.9216 0.370847L18.5923 1.11251L17.9179 0.374161C17.9185 0.373607 17.9191 0.373053 17.9197 0.372501ZM19.2631 1.85417L19.2668 1.85086C19.2655 1.85197 19.2643 1.85307 19.2631 1.85417Z" fill="#9F9F9F"/>
</svg>
