<svg width="26" height="26" viewBox="0 0 26 26" fill="none" xmlns="http://www.w3.org/2000/svg">
<path fill-rule="evenodd" clip-rule="evenodd" d="M12.7357 2.31557C6.9808 2.31557 2.31557 6.9808 2.31557 12.7357C2.31557 18.4905 6.9808 23.1557 12.7357 23.1557C18.4905 23.1557 23.1557 18.4905 23.1557 12.7357C23.1557 6.9808 18.4905 2.31557 12.7357 2.31557ZM0 12.7357C0 5.70195 5.70195 0 12.7357 0C19.7694 0 25.4713 5.70195 25.4713 12.7357C25.4713 19.7694 19.7694 25.4713 12.7357 25.4713C5.70195 25.4713 0 19.7694 0 12.7357Z" fill="#A3A3A3"/>
<path fill-rule="evenodd" clip-rule="evenodd" d="M12.7357 10.806C13.3751 10.806 13.8935 11.3244 13.8935 11.9638V18.1387C13.8935 18.7781 13.3751 19.2964 12.7357 19.2964C12.0962 19.2964 11.5779 18.7781 11.5779 18.1387V11.9638C11.5779 11.3244 12.0962 10.806 12.7357 10.806Z" fill="#A3A3A3"/>
<path d="M13.8936 8.49043C13.8936 9.12986 13.3752 9.64822 12.7358 9.64822C12.0964 9.64822 11.578 9.12986 11.578 8.49043C11.578 7.851 12.0964 7.33264 12.7358 7.33264C13.3752 7.33264 13.8936 7.851 13.8936 8.49043Z" fill="#A3A3A3"/>
</svg>
