<svg width="42" height="39" viewBox="0 0 42 39" fill="none" xmlns="http://www.w3.org/2000/svg">
<path fill-rule="evenodd" clip-rule="evenodd" d="M5.4522 11.2186C4.17334 11.2186 3.13663 12.2553 3.13663 13.5342V32.8306C3.13663 34.1095 4.17334 35.1462 5.4522 35.1462H36.3265C37.6054 35.1462 38.6421 34.1095 38.6421 32.8306V13.5342C38.6421 12.2553 37.6054 11.2186 36.3265 11.2186H5.4522ZM0.0491943 13.5342C0.0491943 10.5502 2.4682 8.13115 5.4522 8.13115H36.3265C39.3105 8.13115 41.7295 10.5502 41.7295 13.5342V32.8306C41.7295 35.8146 39.3105 38.2336 36.3265 38.2336H5.4522C2.4682 38.2336 0.0491943 35.8146 0.0491943 32.8306V13.5342Z" fill="#7A7A7A"/>
<path fill-rule="evenodd" clip-rule="evenodd" d="M13.2095 1.99507C14.2227 0.981811 15.597 0.412567 17.03 0.412567H24.7485C26.1815 0.412567 27.5558 0.981811 28.569 1.99507C29.5823 3.00833 30.1515 4.38261 30.1515 5.81557V36.6899C30.1515 37.5425 29.4604 38.2336 28.6078 38.2336C27.7553 38.2336 27.0641 37.5425 27.0641 36.6899V5.81557C27.0641 5.20144 26.8201 4.61247 26.3859 4.17821C25.9516 3.74396 25.3627 3.5 24.7485 3.5H17.03C16.4158 3.5 15.8269 3.74396 15.3926 4.17821C14.9583 4.61247 14.7144 5.20144 14.7144 5.81557V36.6899C14.7144 37.5425 14.0232 38.2336 13.1707 38.2336C12.3181 38.2336 11.627 37.5425 11.627 36.6899V5.81557C11.627 4.38261 12.1962 3.00833 13.2095 1.99507Z" fill="#7A7A7A"/>
</svg>
