<svg width="42" height="43" viewBox="0 0 42 43" fill="none" xmlns="http://www.w3.org/2000/svg">
<path fill-rule="evenodd" clip-rule="evenodd" d="M20.8894 3.64755C11.0848 3.64755 3.13663 11.5957 3.13663 21.4003C3.13663 31.2048 11.0848 39.153 20.8894 39.153C30.6939 39.153 38.6421 31.2048 38.6421 21.4003C38.6421 11.5957 30.6939 3.64755 20.8894 3.64755ZM0.0491943 21.4003C0.0491943 9.89058 9.37965 0.56012 20.8894 0.56012C32.3991 0.56012 41.7295 9.89058 41.7295 21.4003C41.7295 32.91 32.3991 42.2404 20.8894 42.2404C9.37965 42.2404 0.0491943 32.91 0.0491943 21.4003Z" fill="#7A7A7A"/>
<path fill-rule="evenodd" clip-rule="evenodd" d="M14.4021 24.3285C13.8896 23.6506 12.925 23.5143 12.2445 24.0246C11.5625 24.5361 11.4242 25.5037 11.9358 26.1858L13.1708 25.2596C11.9358 26.1858 11.9362 26.1863 11.9365 26.1868L11.9374 26.1879L11.9392 26.1904L11.9438 26.1964L11.9562 26.2126C11.9659 26.2252 11.9785 26.2415 11.9941 26.2611C12.0252 26.3004 12.0679 26.3533 12.1221 26.4178C12.2304 26.5468 12.3849 26.723 12.5839 26.9307C12.9806 27.3447 13.5615 27.8911 14.313 28.4377C15.8102 29.5265 18.0519 30.6626 20.8893 30.6626C23.7267 30.6626 25.9685 29.5265 27.4656 28.4377C28.2172 27.8911 28.7981 27.3447 29.1948 26.9307C29.3938 26.723 29.5483 26.5468 29.6566 26.4178C29.7107 26.3533 29.7535 26.3004 29.7846 26.2611C29.8001 26.2415 29.8128 26.2252 29.8225 26.2126L29.8349 26.1964L29.8394 26.1904L29.8413 26.1879L29.8421 26.1868C29.8425 26.1863 29.8429 26.1858 28.6079 25.2596L29.8429 26.1858C30.3544 25.5037 30.2162 24.5361 29.5341 24.0246C28.8524 23.5133 27.8854 23.6512 27.3736 24.3324L27.3743 24.3316L27.3753 24.3302L27.3764 24.3287L27.3639 24.3447C27.3502 24.362 27.3261 24.392 27.2917 24.433C27.2228 24.5151 27.1135 24.6403 26.9657 24.7945C26.669 25.1041 26.2248 25.5225 25.6497 25.9408C24.4936 26.7816 22.8761 27.5751 20.8893 27.5751C18.9026 27.5751 17.2851 26.7816 16.129 25.9408C15.5539 25.5225 15.1097 25.1041 14.8129 24.7945C14.6652 24.6403 14.5559 24.5151 14.487 24.433C14.4526 24.392 14.4285 24.362 14.4148 24.3447L14.4022 24.3287M14.4021 24.3285C14.4021 24.3285 14.4021 24.3285 14.4021 24.3285Z" fill="#7A7A7A"/>
<path fill-rule="evenodd" clip-rule="evenodd" d="M13.5566 15.6114C13.5566 14.7588 14.2478 14.0676 15.1004 14.0676H15.1197C15.9722 14.0676 16.6634 14.7588 16.6634 15.6114C16.6634 16.4639 15.9722 17.1551 15.1197 17.1551H15.1004C14.2478 17.1551 13.5566 16.4639 13.5566 15.6114Z" fill="#7A7A7A"/>
<path fill-rule="evenodd" clip-rule="evenodd" d="M25.1345 15.6114C25.1345 14.7588 25.8257 14.0676 26.6782 14.0676H26.6975C27.5501 14.0676 28.2413 14.7588 28.2413 15.6114C28.2413 16.4639 27.5501 17.1551 26.6975 17.1551H26.6782C25.8257 17.1551 25.1345 16.4639 25.1345 15.6114Z" fill="#7A7A7A"/>
</svg>
