<svg width="42" height="42" viewBox="0 0 42 42" fill="none" xmlns="http://www.w3.org/2000/svg">
<path fill-rule="evenodd" clip-rule="evenodd" d="M0 20.8402C0 9.33046 9.33046 0 20.8402 0C32.3499 0 41.6803 9.33046 41.6803 20.8402C41.6803 32.3499 32.3499 41.6803 20.8402 41.6803C9.33046 41.6803 0 32.3499 0 20.8402ZM14.353 23.7684C13.8405 23.0905 12.8759 22.9542 12.1955 23.4645C11.5134 23.976 11.3752 24.9436 11.8867 25.6257L13.1217 24.6995C11.8867 25.6257 11.8875 25.6267 11.8875 25.6267L11.8883 25.6278L11.8902 25.6303L11.8947 25.6363L11.9071 25.6525C11.9168 25.6651 11.9295 25.6813 11.945 25.701C11.9761 25.7403 12.0189 25.7931 12.073 25.8577C12.1813 25.9867 12.3358 26.1629 12.5348 26.3706C12.9315 26.7845 13.5124 27.331 14.264 27.8776C15.7611 28.9664 18.0029 30.1025 20.8403 30.1025C23.6777 30.1025 25.9195 28.9664 27.4166 27.8776C28.1681 27.331 28.749 26.7845 29.1458 26.3706C29.3448 26.1629 29.4993 25.9867 29.6075 25.8577C29.6617 25.7931 29.7044 25.7403 29.7355 25.701C29.7511 25.6813 29.7637 25.6651 29.7734 25.6525L29.7858 25.6363L29.7904 25.6303L29.7922 25.6278L29.7931 25.6267C29.7931 25.6267 29.7938 25.6257 28.5588 24.6995L29.7938 25.6257C30.3054 24.9436 30.1671 23.976 29.4851 23.4645C28.8033 22.9532 27.8363 23.091 27.3246 23.7723L27.3252 23.7715L27.3263 23.77L27.3274 23.7686L27.3148 23.7846C27.3012 23.8019 27.277 23.8319 27.2426 23.8729C27.1737 23.955 27.0644 24.0802 26.9167 24.2344C26.6199 24.544 26.1757 24.9624 25.6006 25.3806C24.4445 26.2215 22.827 27.015 20.8403 27.015C18.8536 27.015 17.236 26.2215 16.0799 25.3806C15.5048 24.9624 15.0606 24.544 14.7639 24.2344C14.6161 24.0802 14.5068 23.955 14.4379 23.8729C14.4035 23.8319 14.3794 23.8019 14.3657 23.7846L14.353 23.7684ZM13.5076 15.0512C13.5076 14.1987 14.1987 13.5075 15.0513 13.5075H15.0706C15.9232 13.5075 16.6143 14.1987 16.6143 15.0512C16.6143 15.9038 15.9232 16.5949 15.0706 16.5949H15.0513C14.1987 16.5949 13.5076 15.9038 13.5076 15.0512ZM25.0853 15.0512C25.0853 14.1987 25.7765 13.5075 26.629 13.5075H26.6483C27.5009 13.5075 28.1921 14.1987 28.1921 15.0512C28.1921 15.9038 27.5009 16.5949 26.6483 16.5949H26.629C25.7765 16.5949 25.0853 15.9038 25.0853 15.0512Z" fill="#7A7A7A"/>
</svg>
