<svg width="42" height="39" viewBox="0 0 42 39" fill="none" xmlns="http://www.w3.org/2000/svg">
<path fill-rule="evenodd" clip-rule="evenodd" d="M0 13.5342C0 10.5502 2.41901 8.13115 5.40301 8.13115H36.2773C39.2613 8.13115 41.6803 10.5502 41.6803 13.5342V32.8306C41.6803 35.8146 39.2613 38.2336 36.2773 38.2336H5.40301C2.41901 38.2336 0 35.8146 0 32.8306V13.5342Z" fill="#7A7A7A"/>
<path fill-rule="evenodd" clip-rule="evenodd" d="M13.1604 1.99507C14.1736 0.981811 15.5479 0.412567 16.9809 0.412567H24.6995C26.1324 0.412567 27.5067 0.981811 28.52 1.99507C29.5332 3.00833 30.1025 4.38261 30.1025 5.81557V36.6899C30.1025 37.5425 29.4113 38.2336 28.5588 38.2336C27.7062 38.2336 27.015 37.5425 27.015 36.6899V5.81557C27.015 5.20144 26.7711 4.61247 26.3368 4.17821C25.9026 3.74396 25.3136 3.5 24.6995 3.5H16.9809C16.3668 3.5 15.7778 3.74396 15.3435 4.17821C14.9093 4.61247 14.6653 5.20144 14.6653 5.81557V36.6899C14.6653 37.5425 13.9742 38.2336 13.1216 38.2336C12.269 38.2336 11.5779 37.5425 11.5779 36.6899V5.81557C11.5779 4.38261 12.1471 3.00833 13.1604 1.99507Z" fill="#7A7A7A"/>
</svg>
