<svg width="116" height="112" viewBox="0 0 116 112" fill="none" xmlns="http://www.w3.org/2000/svg">
<path d="M19.7936 39.9304C19.8115 40.5403 19.8768 41.2132 19.9896 41.9493C20.1024 42.6853 20.1605 43.3789 20.1638 44.0301C20.3459 45.6262 20.4827 47.0206 20.5743 48.2135C20.6938 49.393 20.7859 50.5512 20.8507 51.6882C20.9434 52.8119 21.0422 53.9841 21.1472 55.2049C21.2388 56.3977 21.3756 57.7922 21.5576 59.3883C21.6994 60.9006 21.8078 62.3431 21.8826 63.7158C21.9719 65.0472 21.9496 66.4321 21.8155 67.8707C21.7843 68.0919 21.6765 68.3326 21.4922 68.5928C21.3213 68.881 21.1163 69.1339 20.8773 69.3517C20.6517 69.5975 20.406 69.8013 20.1401 69.9632C19.9156 70.1397 19.7202 70.2335 19.5538 70.2447C18.8456 70.3441 18.3218 70.1833 17.9823 69.7622C17.6282 69.3824 17.3328 68.8027 17.096 68.0231C17.0223 67.4401 16.9469 66.5315 16.8699 65.2973C16.7649 64.0765 16.6487 62.6893 16.5214 61.1357C16.3941 59.582 16.2679 57.9591 16.1428 56.267C16.0177 54.5749 15.8982 52.966 15.7843 51.4402C15.657 49.8866 15.5403 48.534 15.4342 47.3825C15.3426 46.1896 15.2734 45.3296 15.2265 44.8024C15.1148 43.9971 15.0444 43.2063 15.0154 42.4301C14.973 41.6259 14.9233 40.8424 14.8663 40.0795C14.8462 39.6082 14.8328 39.1508 14.8261 38.7074C14.806 38.236 14.7513 37.7641 14.662 37.2917C14.2565 37.5206 13.8706 37.8261 13.5043 38.2081C13.1524 38.5488 12.7788 38.9514 12.3834 39.416C12.0026 39.8393 11.6144 40.2833 11.219 40.7479C10.8102 41.1847 10.3741 41.6002 9.91054 41.9944C9.69945 42.1988 9.39061 42.4501 8.98405 42.7483C8.60542 43.0331 8.24912 43.2213 7.91516 43.3129C7.37122 43.5397 6.9211 43.5324 6.56481 43.2911C6.18059 43.0633 5.91588 42.7265 5.77069 42.2809C5.59757 41.8486 5.5501 41.3561 5.62829 40.8032C5.7344 40.2369 5.98516 39.7215 6.38055 39.2568C6.70446 38.9296 7.19032 38.4387 7.83814 37.7842C8.50048 37.0883 9.24659 36.3523 10.0765 35.5761C10.9063 34.7998 11.7982 34.0453 12.7521 33.3126C13.6925 32.552 14.6235 31.9506 15.5449 31.5083C15.8096 31.4156 16.0866 31.4201 16.3759 31.5217C16.6797 31.582 16.9623 31.6697 17.2237 31.7847C19.3458 33.3429 21.3908 34.9551 23.3588 36.6216C25.3134 38.2601 27.3289 39.9897 29.4052 41.8103C30.0966 40.1729 30.8377 38.4601 31.6285 36.6719C32.4059 34.8558 33.2039 33.047 34.0227 31.2454C34.8559 29.4025 35.6886 27.5942 36.5207 25.8206C37.3807 24.0335 38.2184 22.3431 39.0338 20.7492C39.2471 20.4063 39.5079 20.1265 39.8162 19.9099C40.1111 19.6653 40.4249 19.5318 40.7578 19.5095C41.0772 19.4592 41.4017 19.5268 41.7312 19.7122C42.0607 19.8976 42.3533 20.221 42.6091 20.6822C42.8246 21.0598 42.9564 21.4775 43.0044 21.9354C43.0804 22.38 43.1429 22.7966 43.1921 23.1853C43.4679 24.9768 43.7466 27.0247 44.028 29.3289C44.3374 31.6197 44.625 33.9725 44.8908 36.3872C45.1711 38.7607 45.4174 41.099 45.6296 43.4021C45.8697 45.6917 46.0445 47.7379 46.1539 49.5406C46.2991 50.8452 46.3951 51.7611 46.442 52.2883C46.4889 52.8154 46.5303 53.2594 46.566 53.6202C46.6017 53.9809 46.6431 54.4249 46.69 54.9521C46.7503 55.5072 46.8391 56.4438 46.9563 57.7617C46.9909 59.0506 46.9675 60.0754 46.8859 60.836C46.8178 61.6246 46.6151 62.1685 46.2778 62.4678C46.0655 62.7415 45.7986 62.9727 45.4769 63.1614C45.1687 63.3781 44.8341 63.5043 44.4734 63.5401C44.1126 63.5758 43.7396 63.5144 43.3542 63.3558C43.0102 63.2117 42.6891 62.9364 42.3909 62.5298C41.9687 61.2208 41.6705 59.9553 41.4963 58.7334C41.3354 57.5394 41.2232 56.3393 41.1596 55.133C41.0144 52.9695 40.8737 50.9585 40.7374 49.1C40.6291 47.228 40.5269 45.4046 40.4309 43.6299C40.3214 41.8272 40.2192 40.0038 40.1243 38.1598C40.0294 36.3157 39.9507 34.3265 39.8881 32.1921C39.7608 32.3562 39.5754 32.6857 39.3319 33.1805C39.1163 33.6619 38.8863 34.1846 38.6416 34.7487C38.3836 35.2848 38.1396 35.8142 37.9095 36.3369C37.6939 36.8183 37.5431 37.1484 37.4571 37.3271C37.4281 37.4097 37.2991 37.6778 37.0701 38.1312C36.8557 38.5434 36.5909 39.0655 36.276 39.6977C35.9889 40.3165 35.6661 41.0039 35.3076 41.7601C34.9356 42.4883 34.5849 43.1892 34.2554 43.8627C33.9125 44.5083 33.6121 45.0991 33.3541 45.6352C33.124 46.1579 32.9659 46.5086 32.8799 46.6874C32.7224 47.0034 32.5504 47.3609 32.3639 47.7596C32.1919 48.117 31.9858 48.4392 31.7457 48.7263C31.52 48.972 31.2403 49.1406 30.9063 49.2322C30.5723 49.3238 30.1993 49.2624 29.7871 49.0479C29.3772 48.695 28.8445 48.2292 28.1889 47.6507C27.5477 47.0308 26.8927 46.4176 26.2237 45.8111C25.5412 45.1767 24.8996 44.5914 24.2987 44.0553C23.6978 43.5191 23.2538 43.131 22.9667 42.8909C22.5178 42.3849 21.9855 41.8845 21.3701 41.3897C20.7826 40.8815 20.2571 40.3951 19.7936 39.9304Z" fill="#A3A3A3"/>
<path d="M68.6892 38.054C68.7708 38.1523 68.8031 38.2913 68.7864 38.4712C68.7976 38.6376 68.8227 38.7973 68.8618 38.9503C68.854 39.4351 68.7557 39.946 68.5669 40.4833C68.4061 41.0071 68.1966 41.5371 67.9386 42.0732C67.6672 42.5814 67.3818 43.0963 67.0825 43.6179C66.8111 44.1261 66.5542 44.593 66.3118 45.0185C66.1141 45.2508 65.8812 45.5172 65.6132 45.8177C65.3585 46.146 65.0491 46.432 64.685 46.6754C64.2092 46.9725 63.6597 47.1161 63.0364 47.106C62.4411 47.0825 61.9441 46.9775 61.5453 46.791C61.4627 46.762 61.3527 46.7117 61.2153 46.6402C61.1058 46.5553 61.0103 46.4637 60.9288 46.3655C60.7523 46.141 60.6043 45.8684 60.4848 45.5479C60.3653 45.2273 60.2871 44.9213 60.2503 44.6298L60.2101 44.546C59.9666 45.0408 59.7019 45.5629 59.4159 46.1125C59.1445 46.6207 58.8586 47.1702 58.5581 47.761C58.1449 48.4747 57.6417 49.1801 57.0486 49.877C56.4968 50.5885 55.677 51.171 54.5891 51.6244C53.7514 52.0265 52.9953 52.0974 52.3207 51.8372C51.646 51.5769 50.9832 51.019 50.332 50.1634C49.654 49.252 49.1928 48.2194 48.9482 47.0657C48.7181 45.8706 48.6338 44.657 48.6952 43.4251C48.7433 42.1652 48.9292 40.9422 49.2532 39.756C49.5637 38.5419 49.9485 37.4468 50.4075 36.4706C50.6376 35.9479 51.0079 35.3235 51.5183 34.5975C52.0567 33.8581 52.6771 33.1824 53.3797 32.5703C54.0688 31.9304 54.8038 31.4573 55.5845 31.1513C56.3797 30.804 57.17 30.7682 57.9551 31.0441C58.5493 31.1368 59.0095 31.3798 59.3356 31.7729C59.6484 32.1382 59.9187 32.5581 60.1465 33.0328C60.495 33.7588 60.7603 34.4904 60.9423 35.2276C61.1244 35.9647 61.2924 36.7086 61.4466 37.4592C61.6007 38.2097 61.7755 38.9676 61.9709 39.7327C62.153 40.4698 62.4116 41.1874 62.7466 41.8855C63.2727 41.9079 63.6982 41.7208 64.0233 41.3243C64.3349 40.8999 64.6197 40.4196 64.8777 39.8835C65.1223 39.3194 65.3803 38.7833 65.6518 38.2751C65.9098 37.739 66.2622 37.3637 66.7089 37.1493C67.2238 37.0052 67.6455 37.0605 67.9738 37.3151C68.3167 37.5285 68.5552 37.7748 68.6892 38.054ZM55.2845 45.8796C55.6374 45.4696 55.9876 44.8034 56.3349 43.8808C56.6823 42.9583 56.9336 41.9787 57.0889 40.9422C57.2721 39.8923 57.3229 38.8888 57.2414 37.9316C57.1598 36.9744 56.8527 36.2629 56.3199 35.7971C55.9022 35.9289 55.5386 36.1378 55.2293 36.4237C54.9478 36.6963 54.7071 37.0179 54.5072 37.3887C54.3072 37.7596 54.1414 38.1655 54.0096 38.6067C53.8923 39.0066 53.789 39.3997 53.6996 39.7862C53.4494 40.6965 53.2539 41.6492 53.1132 42.6444C52.987 43.5982 53.0406 44.5688 53.274 45.5562C53.4304 46.1683 53.7096 46.4637 54.1117 46.4425C54.5138 46.4213 54.9047 46.2336 55.2845 45.8796Z" fill="#A3A3A3"/>
<path d="M70.8742 25.5131C71.2159 24.9368 71.675 24.39 72.2513 23.8729C72.8143 23.3278 73.3951 22.9632 73.9937 22.7789C74.6203 22.5812 75.2156 22.6047 75.7797 22.8493C76.3437 23.0939 76.805 23.697 77.1635 24.6587C77.3378 25.0217 77.4824 25.502 77.5974 26.0995C77.727 26.6557 77.8214 27.246 77.8806 27.8704C77.9397 28.4948 77.9576 29.1046 77.9341 29.6999C77.9386 30.2818 77.8962 30.766 77.8068 31.1525C77.6873 31.6908 77.3684 32.1359 76.8502 32.4877C76.3185 32.8116 75.7293 32.8368 75.0826 32.5631C74.7665 32.4056 74.5415 32.1873 74.4075 31.908C74.3014 31.6154 74.2304 31.2887 74.1947 30.9279C74.159 30.5672 74.1093 30.2131 74.0456 29.8657C73.9965 29.477 73.8842 29.1358 73.7089 28.8421C72.9237 29.4251 72.3641 30.1919 72.0301 31.1424C71.6961 32.0929 71.4789 33.1076 71.3784 34.1865C71.2778 35.2655 71.2465 36.3455 71.2845 37.4267C71.3091 38.4799 71.308 39.4081 71.2811 40.2112C71.2621 40.5295 71.2845 40.8623 71.3481 41.2097C71.4118 41.557 71.4548 41.8972 71.4771 42.23C71.4995 42.5628 71.4944 42.8745 71.4621 43.1649C71.4431 43.4832 71.342 43.7378 71.1588 43.9288C70.8047 44.408 70.315 44.7118 69.6895 44.8402C69.1053 44.9832 68.5943 44.8849 68.1565 44.5453C67.9521 44.3342 67.798 44.0131 67.6941 43.582C67.5489 43.1363 67.4389 42.6566 67.3641 42.1428C67.2893 41.6291 67.2284 41.1086 67.1815 40.5814C67.1212 40.0263 67.0598 39.5404 66.9972 39.1238C66.7962 37.8461 66.6588 36.4862 66.5851 35.0443C66.5259 33.561 66.3958 32.1805 66.1948 30.9027C65.8563 31.2713 65.519 31.5706 65.1828 31.8007C64.8466 32.0308 64.5261 32.1503 64.2212 32.1592C63.9163 32.1682 63.6342 32.0459 63.3751 31.7923C63.1305 31.4975 62.9373 31.0233 62.7954 30.3699C62.8424 30.0382 62.8887 29.7411 62.9345 29.4786C62.9669 29.1882 63.0691 28.8643 63.2411 28.5069C63.4131 28.1495 63.6896 27.7591 64.0704 27.3358C64.4658 26.8712 65.0081 26.3189 65.6972 25.6789C66.1474 25.2567 66.5455 25.0484 66.8918 25.054C67.2525 25.0183 67.5765 25.1205 67.8635 25.3606C68.1371 25.5728 68.3672 25.909 68.5537 26.3692C68.7548 26.788 68.9 27.2337 68.9893 27.7061C68.9748 27.7475 68.9804 27.8307 69.0061 27.9558C69.0184 28.0529 69.0374 28.1641 69.063 28.2892C69.0887 28.4143 69.1077 28.5254 69.12 28.6226C69.1602 28.7063 69.1803 28.7482 69.1803 28.7482C69.3847 28.1004 69.6221 27.557 69.8924 27.1181C70.1627 26.6791 70.4899 26.1441 70.8742 25.5131Z" fill="#A3A3A3"/>
<path d="M91.9642 27.6553C92.2389 27.7983 92.6025 28.0189 93.0548 28.3171C93.5217 28.574 93.9321 28.8923 94.2862 29.2721C94.6403 29.6518 94.848 30.0846 94.9094 30.5705C94.9709 31.0563 94.7268 31.5857 94.1773 32.1587C93.63 32.5932 92.99 32.763 92.2573 32.668C91.5525 32.5597 90.9393 32.3558 90.4177 32.0565C89.7588 31.6857 89.1752 31.3645 88.667 31.0931C88.1588 30.8217 87.664 30.5782 87.1826 30.3627C86.6878 30.1192 86.1718 29.903 85.6346 29.7143C85.1252 29.5121 84.5467 29.3088 83.8989 29.1044C83.7391 30.4179 83.7051 31.6711 83.7966 32.864C83.8748 34.0289 83.9033 35.2692 83.8821 36.585C83.7793 36.9435 83.5308 37.3205 83.1365 37.7158C82.7422 38.1112 82.2943 38.3949 81.7928 38.5669C81.2913 38.7389 80.8133 38.7451 80.3587 38.5853C79.9175 38.4535 79.592 38.0258 79.382 37.302C79.4021 36.9144 79.3474 36.4425 79.2178 35.8863C79.0883 35.3301 79.0011 34.7191 78.9565 34.0534C78.6248 30.5709 78.206 26.9068 77.7 23.0613C77.222 19.2023 76.7496 15.4266 76.2828 11.734C76.1599 10.7623 76.0438 9.80457 75.9343 8.86077C75.8528 7.90357 75.9165 6.96257 76.1253 6.03776C76.38 5.70939 76.6682 5.45083 76.9898 5.26207C77.2981 5.04539 77.6047 4.93258 77.9096 4.92365C78.2291 4.87339 78.5256 4.95437 78.7992 5.16659C79.0874 5.33748 79.3041 5.64575 79.4493 6.0914C79.7073 7.27311 79.9502 8.53076 80.178 9.86436C80.3925 11.17 80.5874 12.3992 80.7627 13.5519C81.0676 15.2608 81.3317 16.9205 81.5551 18.5311C81.793 20.1004 82.0298 21.7389 82.2654 23.4467C82.4631 23.2143 82.6988 22.7748 82.9725 22.1281C83.2461 21.4814 83.5622 20.78 83.9207 20.0239C84.2659 19.2398 84.6456 18.4563 85.06 17.6733C85.4744 16.8904 85.9145 16.2325 86.3802 15.6998C87.1509 15.1581 87.7836 15.0089 88.2784 15.2524C88.8012 15.4825 88.9078 16.17 88.5984 17.3148C88.4666 17.756 88.3421 18.1765 88.2248 18.5764C88.0941 18.9483 87.9288 19.3197 87.7289 19.6905C87.4664 20.5036 87.1916 21.2196 86.9046 21.8383C86.6454 22.4437 86.3567 23.1663 86.0384 24.0063C86.0797 24.0208 86.3885 24.1989 86.9649 24.5407C87.5412 24.8825 88.1789 25.2807 88.8781 25.7353C89.5918 26.1485 90.2503 26.554 90.8534 26.9516C91.4844 27.3358 91.8547 27.5704 91.9642 27.6553Z" fill="#A3A3A3"/>
<path d="M33.5462 107.985C33.3798 107.138 33.2206 106.269 33.0687 105.38C32.8889 104.505 32.7163 103.608 32.551 102.691C32.465 102.011 32.3668 101.234 32.2562 100.359C32.1456 99.4846 32.0356 98.5754 31.9262 97.6316C31.7888 96.7012 31.6581 95.7848 31.5342 94.8823C31.4247 93.9385 31.3208 93.078 31.2226 92.3006C30.9869 89.7339 30.6898 87.1108 30.3313 84.4313C29.9728 81.7518 29.6757 79.1288 29.4401 76.5621C29.1441 76.8759 28.8766 77.1418 28.6376 77.3596C28.3852 77.5494 28.1394 77.7533 27.9004 77.9711C27.6759 78.1475 27.4302 78.3514 27.1632 78.5826C26.9242 78.8004 26.6495 79.0868 26.339 79.442C26.0005 79.8106 25.6275 80.1786 25.2198 80.5461C24.84 80.9001 24.4547 81.171 24.0638 81.3586C23.6449 81.5597 23.235 81.6362 22.834 81.5882C22.4331 81.5401 22.0489 81.3123 21.6814 80.9046C21.3821 80.5673 21.2212 80.2322 21.1989 79.8994C21.1352 79.552 21.1542 79.2337 21.2559 78.9444C21.3296 78.6685 21.4513 78.4211 21.6211 78.2022C21.7775 77.9554 21.926 77.7638 22.0668 77.6276C22.3348 77.3271 22.666 76.9792 23.0603 76.5838C23.4411 76.1605 23.8287 75.7511 24.223 75.3558C24.6039 74.9325 24.9702 74.5505 25.322 74.2098C25.6605 73.8412 25.9425 73.5341 26.1681 73.2884C27.0136 72.4015 27.8765 71.7297 28.7566 71.2729C29.6513 70.7748 30.2996 70.5151 30.7017 70.4939C31.0893 70.514 31.4618 70.61 31.8192 70.7821C32.1632 70.9261 32.4486 71.2702 32.6753 71.8141C32.9947 72.6227 33.2957 73.7151 33.5783 75.0911C33.8609 76.4672 34.12 78.0091 34.3556 79.7169C34.6192 81.4112 34.8671 83.2162 35.0994 85.1317C35.3183 87.0193 35.5305 88.8929 35.736 90.7526C35.9281 92.5843 36.1007 94.3396 36.2537 96.0183C36.4212 97.6557 36.5575 99.0848 36.6624 100.306C36.7205 100.999 36.8076 101.61 36.9238 102.138C37.0813 102.681 37.2164 103.321 37.3292 104.057C38.1122 103.612 38.813 103.104 39.4318 102.532C40.0785 101.947 40.6638 101.305 41.1876 100.607C41.6556 99.9359 42.1817 99.0994 42.7659 98.0975C43.3913 97.1101 43.9627 96.0457 44.4798 94.9042C44.9969 93.7628 45.4242 92.6129 45.7615 91.4547C46.1267 90.283 46.3177 89.1778 46.3345 88.1391C46.3546 85.1748 46.2854 82.1675 46.1268 79.1172C45.9962 76.0535 45.6863 72.9384 45.1971 69.7719C45.1211 69.3274 45.0346 68.6818 44.9374 67.8352C44.8402 66.9886 44.7917 66.1358 44.7917 65.2769C44.7783 64.39 44.8397 63.5875 44.976 62.8694C45.1402 62.1378 45.4323 61.6369 45.8522 61.3666C46.1884 61.1365 46.5911 61.0806 47.0602 61.199C47.5159 61.2895 47.8794 61.5101 48.1508 61.8608C48.5306 62.3657 48.8327 62.9593 49.0572 63.6418C49.2683 64.2963 49.4509 64.9988 49.605 65.7494C49.7458 66.472 49.8446 67.2148 49.9016 67.9776C49.973 68.6992 50.0317 69.3581 50.0775 69.9546C50.427 73.1881 50.7224 76.3445 50.9636 79.4238C51.2194 82.4618 51.2585 85.621 51.0808 88.9014C50.8999 92.3896 50.0448 95.5828 48.5157 98.4812C46.9867 101.38 44.9477 104.11 42.3989 106.674C42.0604 107.042 41.6103 107.465 41.0485 107.94C40.5146 108.403 39.9327 108.837 39.3028 109.242C38.6728 109.648 38.0233 109.976 37.3543 110.229C36.6986 110.509 36.1011 110.624 35.5616 110.574C35.0076 110.565 34.5469 110.357 34.1794 109.949C33.7975 109.583 33.5864 108.928 33.5462 107.985Z" fill="#A3A3A3"/>
<path d="M58.8447 89.3491C58.303 89.4374 57.701 89.3999 57.0387 89.2369C56.4042 89.0604 55.9033 88.7683 55.5358 88.3606C54.8411 87.629 54.2324 86.7188 53.7097 85.6298C53.3478 84.8758 53.0692 84.1163 52.8737 83.3512C52.6783 82.5861 52.5481 81.6351 52.4834 80.4981C52.4745 79.3342 52.5621 78.1927 52.7464 77.0736C52.9453 75.9131 53.2742 74.8448 53.7333 73.8686C54.2069 72.8511 54.8033 71.9464 55.5226 71.1545C56.2564 70.3213 57.1745 69.6573 58.2769 69.1625C58.7371 68.976 59.2514 68.8665 59.82 68.8342C60.3885 68.8018 60.9486 68.8593 61.5004 69.0067C62.0521 69.1542 62.5681 69.3703 63.0484 69.6551C63.5432 69.8986 63.9257 70.2303 64.196 70.6503C64.3446 70.8882 64.4792 71.1328 64.5998 71.3841C64.7349 71.5941 64.8628 71.8247 64.9834 72.0761C65.734 73.6397 66.1718 75.2677 66.2969 76.9598C66.4499 78.6385 66.3337 80.2575 65.9484 81.8167C65.5496 83.348 64.904 84.7229 64.0116 85.9415C63.1605 87.1745 62.0927 88.0993 60.8083 88.7159C60.1939 89.0107 59.5394 89.2218 58.8447 89.3491ZM57.0974 76.5827C57.0304 77.302 56.9583 77.9035 56.8813 78.3871C56.8321 78.8573 56.8042 79.3002 56.7975 79.7157C56.7774 80.1033 56.7986 80.5054 56.8611 80.922C56.9516 81.3252 57.0895 81.7915 57.2749 82.3209C57.5933 83.1988 57.9507 83.8003 58.3472 84.1253C58.7582 84.409 59.1592 84.457 59.5501 84.2694C60.0248 84.0416 60.4548 83.5775 60.8401 82.8772C61.2255 82.1769 61.479 81.4883 61.6008 80.8114L61.6226 80.7495C61.6371 80.7081 61.6455 80.6182 61.6477 80.4797C61.651 80.272 61.6773 79.933 61.7264 79.4628C61.8035 78.9791 61.8398 78.4464 61.8354 77.8645C61.8454 77.2412 61.8069 76.6241 61.7198 76.0132C61.6606 75.3888 61.5171 74.8393 61.2892 74.3646C61.0882 73.9457 60.8022 73.6364 60.4314 73.4364C60.0751 73.1952 59.6256 73.1533 59.0828 73.3108C58.8326 73.3621 58.5874 73.5313 58.3473 73.8184C58.135 74.092 57.9429 74.4076 57.7709 74.765C57.5855 75.0945 57.4347 75.4245 57.3186 75.7551C57.2024 76.0857 57.1153 76.3337 57.0572 76.499L57.0974 76.5827Z" fill="#A3A3A3"/>
<path d="M85.4359 69.8862C85.8625 70.0593 86.1362 70.2716 86.2568 70.5229C86.3774 70.7742 86.4143 71.0657 86.3674 71.3974C86.3204 71.7291 86.2177 72.0877 86.0591 72.473C85.8871 72.8304 85.7218 73.2018 85.5632 73.5871C85.4191 73.9311 85.1555 74.384 84.7724 74.9458C84.4172 75.4942 83.9855 76.0622 83.4773 76.6497C82.997 77.2238 82.476 77.7487 81.9141 78.2245C81.3523 78.7003 80.786 79.0237 80.2153 79.1946C79.6859 79.38 79.1805 79.3649 78.6991 79.1493C78.2456 78.9203 77.8804 78.3742 77.6034 77.5108C77.5409 77.0942 77.4984 76.7194 77.4761 76.3866C77.4403 76.0258 77.418 75.693 77.4091 75.3881C77.3867 75.0552 77.3504 74.7291 77.3002 74.4097C77.2778 74.0768 77.2354 73.7021 77.1729 73.2855C77.1148 72.5919 77.0361 71.891 76.9367 71.1829C76.8518 70.4334 76.777 69.9196 76.7122 69.6415C76.3548 70.3284 76.0442 71.1131 75.7806 71.9954C75.5036 72.8499 75.283 73.6429 75.1188 74.3745C75.015 74.8022 74.8938 75.4445 74.7553 76.3011C74.6447 77.1444 74.4643 78.0212 74.2141 78.9315C73.9918 79.8283 73.7014 80.6549 73.3429 81.411C72.9977 82.1951 72.5599 82.7145 72.0294 82.9691C71.7792 83.0205 71.4949 83.0367 71.1766 83.0177C70.8996 83.0132 70.6232 82.9741 70.3473 82.9004C70.0993 82.8133 69.8659 82.6848 69.647 82.5151C69.4281 82.3453 69.2862 82.1213 69.2215 81.8432C69.0226 81.2859 68.8998 80.7436 68.8529 80.2164C68.806 79.6892 68.739 79.1202 68.6519 78.5092C68.5636 77.9675 68.4894 77.4191 68.429 76.864C68.3967 76.2955 68.343 75.7543 68.2682 75.2406C68.2101 74.5469 68.0985 73.7417 67.9332 72.8247C67.7679 71.9077 67.573 71.108 67.3485 70.4255C66.1757 70.9884 65.2515 71.1744 64.5757 70.9834C63.9279 70.779 63.5951 70.3719 63.5772 69.762C63.5739 69.1109 63.905 68.3335 64.5707 67.4299C65.2364 66.5263 66.3104 65.6501 67.7925 64.8013C68.1421 64.5991 68.5436 64.6125 68.9971 64.8415C69.4651 65.0291 69.8063 65.3464 70.0208 65.7931C70.4094 66.6029 70.7127 67.5567 70.9305 68.6547C71.1762 69.7392 71.3398 70.7601 71.4213 71.7173C71.5486 71.5531 71.6279 71.3604 71.6592 71.1393C71.6905 70.9181 71.7564 70.6975 71.8569 70.4775C72.0758 69.7884 72.3104 68.9886 72.5606 68.0784C72.8253 67.1268 73.1314 66.1897 73.4787 65.2671C73.8127 64.3166 74.2215 63.4504 74.7051 62.6686C75.2033 61.8454 75.802 61.2317 76.5012 60.8274C77.2283 60.4096 77.9559 60.3868 78.6842 60.7587C79.4124 61.1306 79.8525 61.7611 80.0043 62.6502C80.1194 63.2478 80.1864 63.8168 80.2054 64.3574C80.2389 64.8567 80.2785 65.4045 80.3243 66.001C80.3265 66.7214 80.35 67.4144 80.3947 68.0801C80.4673 68.7324 80.5192 69.3774 80.5505 70.0152C80.6096 70.6395 80.6549 71.2706 80.6861 71.9083C80.7174 72.5461 80.7275 73.2112 80.7163 73.9037C81.1072 73.7161 81.4657 73.3894 81.7919 72.9236C82.1325 72.4166 82.4799 71.9234 82.834 71.4443C83.216 70.9517 83.6035 70.5424 83.9967 70.2162C84.4178 69.8767 84.8975 69.7667 85.4359 69.8862Z" fill="#A3A3A3"/>
<path d="M97.2334 64.6358C97.5082 64.7788 97.8717 64.9993 98.3241 65.2976C98.7909 65.5545 99.2014 65.8728 99.5555 66.2525C99.9095 66.6323 100.117 67.0651 100.179 67.551C100.24 68.0368 99.9961 68.5662 99.4465 69.1392C98.8992 69.5737 98.2592 69.7435 97.5265 69.6485C96.8218 69.5402 96.2086 69.3363 95.687 69.037C95.028 68.6662 94.4444 68.345 93.9362 68.0736C93.428 67.8022 92.9332 67.5587 92.4519 67.3432C91.9571 67.0997 91.4411 66.8835 90.9038 66.6948C90.3945 66.4926 89.8159 66.2893 89.1681 66.0849C89.0084 67.3984 88.9743 68.6516 89.0659 69.8445C89.1441 71.0094 89.1725 72.2497 89.1513 73.5655C89.0486 73.924 88.8 74.301 88.4058 74.6963C88.0115 75.0917 87.5636 75.3754 87.0621 75.5474C86.5606 75.7194 86.0826 75.7256 85.628 75.5658C85.1868 75.434 84.8612 75.0063 84.6512 74.2825C84.6714 73.8949 84.6166 73.423 84.4871 72.8668C84.3575 72.3106 84.2704 71.6996 84.2257 71.0339C83.894 67.5514 83.4752 63.8873 82.9693 60.0418C82.4913 56.1828 82.0189 52.4071 81.552 48.7145C81.4292 47.7428 81.313 46.7851 81.2036 45.8413C81.122 44.8841 81.1857 43.9431 81.3946 43.0183C81.6492 42.6899 81.9374 42.4313 82.2591 42.2426C82.5674 42.0259 82.874 41.9131 83.1789 41.9041C83.4983 41.8539 83.7949 41.9349 84.0685 42.1471C84.3567 42.318 84.5733 42.6263 84.7185 43.0719C84.9765 44.2536 85.2194 45.5113 85.4473 46.8449C85.6617 48.1505 85.8566 49.3797 86.032 50.5324C86.3369 52.2413 86.601 53.901 86.8244 55.5116C87.0623 57.0809 87.299 58.7194 87.5347 60.4272C87.7324 60.1948 87.9681 59.7553 88.2417 59.1086C88.5154 58.4619 88.8315 57.7605 89.19 57.0044C89.5351 56.2203 89.9149 55.4368 90.3293 54.6538C90.7437 53.8709 91.1837 53.213 91.6495 52.6802C92.4202 52.1385 93.0529 51.9894 93.5477 52.2329C94.0704 52.463 94.1771 53.1505 93.8677 54.2953C93.7359 54.7365 93.6113 55.157 93.494 55.5569C93.3634 55.9288 93.1981 56.3002 92.9981 56.671C92.7356 57.4841 92.4609 58.2001 92.1738 58.8188C91.9147 59.4242 91.626 60.1468 91.3076 60.9868C91.349 61.0013 91.6578 61.1794 92.2341 61.5212C92.8104 61.863 93.4482 62.2612 94.1474 62.7158C94.8611 63.129 95.5195 63.5345 96.1226 63.9321C96.7537 64.3163 97.124 64.5509 97.2334 64.6358Z" fill="#A3A3A3"/>
</svg>
