<svg width="29" height="33" viewBox="0 0 29 33" fill="none" xmlns="http://www.w3.org/2000/svg">
<path fill-rule="evenodd" clip-rule="evenodd" d="M14.0462 1.51447e-07C14.459 -0.000181424 14.855 0.162918 15.1469 0.45338L23.9509 9.21434C23.9511 9.21446 23.9508 9.21422 23.9509 9.21434C25.9096 11.1623 27.2441 13.6448 27.785 16.3473C28.3259 19.05 28.0492 21.8516 26.9899 24.3978C25.9305 26.944 24.1361 29.1203 21.8336 30.6515C19.5311 32.1827 16.824 33 14.0547 33C11.2854 33 8.57824 32.1827 6.27575 30.6515C3.97327 29.1203 2.17886 26.944 1.1195 24.3978C0.0601455 21.8516 -0.216565 19.05 0.324371 16.3473C0.865222 13.6451 2.19917 11.1631 4.15751 9.21527C4.15782 9.21496 4.1572 9.21558 4.15751 9.21527L12.946 0.454348C13.2376 0.163629 13.6334 0.000181727 14.0462 1.51447e-07ZM14.0479 3.73802L6.35761 11.4042C4.83406 12.9193 3.79628 14.85 3.37555 16.9521C2.95482 19.0541 3.17004 21.2332 3.99399 23.2135C4.81793 25.1939 6.21358 26.8866 8.00441 28.0775C9.79523 29.2685 11.9008 29.9041 14.0547 29.9041C16.2086 29.9041 18.3141 29.2685 20.105 28.0775C21.8958 26.8866 23.2914 25.1939 24.1154 23.2135C24.9393 21.2332 25.1546 19.0541 24.7338 16.9521C24.3131 14.85 23.2753 12.9193 21.7518 11.4042L14.0479 3.73802Z" fill="#56CCF2"/>
</svg>
