<svg width="42" height="41" viewBox="0 0 42 41" fill="none" xmlns="http://www.w3.org/2000/svg">
<path fill-rule="evenodd" clip-rule="evenodd" d="M29.4041 14.7468C29.4041 13.8943 30.0952 13.2031 30.9478 13.2031H32.7855C35.1446 13.2031 37.407 14.1402 39.0751 15.8083C40.7431 17.4764 41.6803 19.7388 41.6803 22.0979C41.6803 24.4569 40.7431 26.7193 39.0751 28.3874C37.407 30.0555 35.1446 30.9926 32.7855 30.9926H30.9478C30.0952 30.9926 29.4041 30.3015 29.4041 29.4489C29.4041 28.5963 30.0952 27.9052 30.9478 27.9052H32.7855C34.3257 27.9052 35.8028 27.2933 36.8919 26.2042C37.981 25.1152 38.5928 23.638 38.5928 22.0979C38.5928 20.5577 37.981 19.0805 36.8919 17.9915C35.8028 16.9024 34.3257 16.2905 32.7855 16.2905H30.9478C30.0952 16.2905 29.4041 15.5994 29.4041 14.7468Z" fill="#7A7A7A"/>
<path fill-rule="evenodd" clip-rule="evenodd" d="M0 14.7468C0 13.8943 0.691145 13.2031 1.54372 13.2031H30.9478C31.8004 13.2031 32.4915 13.8943 32.4915 14.7468V31.2866C32.4915 33.6457 31.5544 35.9081 29.8863 37.5762C28.2182 39.2443 25.9558 40.1814 23.5968 40.1814H8.89474C6.53571 40.1814 4.2733 39.2443 2.60521 37.5762C0.937122 35.9081 0 33.6457 0 31.2866V14.7468Z" fill="#7A7A7A"/>
<path fill-rule="evenodd" clip-rule="evenodd" d="M8.89479 0.338806C9.74736 0.338806 10.4385 1.02995 10.4385 1.88252V7.39579C10.4385 8.24836 9.74736 8.93951 8.89479 8.93951C8.04222 8.93951 7.35107 8.24836 7.35107 7.39579V1.88252C7.35107 1.02995 8.04222 0.338806 8.89479 0.338806Z" fill="#7A7A7A"/>
<path fill-rule="evenodd" clip-rule="evenodd" d="M16.2457 0.338806C17.0983 0.338806 17.7895 1.02995 17.7895 1.88252V7.39579C17.7895 8.24836 17.0983 8.93951 16.2457 8.93951C15.3932 8.93951 14.702 8.24836 14.702 7.39579V1.88252C14.702 1.02995 15.3932 0.338806 16.2457 0.338806Z" fill="#7A7A7A"/>
<path fill-rule="evenodd" clip-rule="evenodd" d="M23.5969 0.338806C24.4495 0.338806 25.1407 1.02995 25.1407 1.88252V7.39579C25.1407 8.24836 24.4495 8.93951 23.5969 8.93951C22.7444 8.93951 22.0532 8.24836 22.0532 7.39579V1.88252C22.0532 1.02995 22.7444 0.338806 23.5969 0.338806Z" fill="#7A7A7A"/>
</svg>
