<svg width="58" height="57" viewBox="0 0 58 57" fill="none" xmlns="http://www.w3.org/2000/svg">
<path d="M17.3534 21.1459C17.3712 21.7537 17.4363 22.4245 17.5487 23.1582C17.6612 23.892 17.7191 24.5833 17.7224 25.2324C17.9039 26.8234 18.0402 28.2134 18.1315 29.4025C18.2506 30.5782 18.3425 31.7328 18.4071 32.8662C18.4995 33.9862 18.598 35.1547 18.7026 36.3716C18.7939 37.5606 18.9303 38.9507 19.1117 40.5417C19.2531 42.0491 19.3611 43.487 19.4357 44.8554C19.5247 46.1825 19.5025 47.563 19.3688 48.997C19.3377 49.2175 19.2302 49.4574 19.0465 49.7168C18.8762 50.0041 18.6719 50.2562 18.4336 50.4733C18.2087 50.7183 17.9638 50.9215 17.6988 51.0829C17.475 51.2588 17.2802 51.3523 17.1143 51.3635C16.4084 51.4625 15.8862 51.3022 15.5478 50.8825C15.1949 50.5039 14.9004 49.9261 14.6644 49.149C14.5909 48.5678 14.5157 47.6621 14.4389 46.4318C14.3343 45.2149 14.2185 43.8321 14.0916 42.2835C13.9647 40.7348 13.8389 39.1171 13.7142 37.4303C13.5895 35.7436 13.4704 34.1398 13.3569 32.619C13.23 31.0703 13.1136 29.722 13.0079 28.5741C12.9166 27.3851 12.8476 26.5278 12.8008 26.0023C12.6895 25.1995 12.6193 24.4113 12.5904 23.6375C12.5481 22.8359 12.4986 22.0549 12.4418 21.2944C12.4218 20.8246 12.4084 20.3687 12.4017 19.9267C12.3817 19.4568 12.3271 18.9865 12.2381 18.5155C11.8339 18.7437 11.4493 19.0482 11.0841 19.429C10.7334 19.7686 10.3609 20.1699 9.96681 20.6331C9.58715 21.055 9.20025 21.4976 8.80612 21.9608C8.39863 22.3961 7.96386 22.8102 7.50181 23.2032C7.29139 23.407 6.98354 23.6575 6.57828 23.9548C6.20085 24.2387 5.84568 24.4263 5.51279 24.5175C4.97058 24.7436 4.5219 24.7363 4.16674 24.4958C3.78375 24.2687 3.51989 23.933 3.37515 23.4888C3.20259 23.0579 3.15528 22.5669 3.23321 22.0158C3.33899 21.4513 3.58894 20.9375 3.98307 20.4744C4.30595 20.1482 4.79026 19.6589 5.43602 19.0064C6.09624 18.3128 6.83997 17.5791 7.6672 16.8053C8.49443 16.0316 9.38346 15.2795 10.3343 14.5492C11.2717 13.791 12.1997 13.1914 13.1182 12.7506C13.3821 12.6581 13.6582 12.6626 13.9466 12.7639C14.2494 12.824 14.5311 12.9114 14.7916 13.0261C16.907 14.5793 18.9455 16.1864 20.9072 17.8476C22.8556 19.4809 24.8646 21.2049 26.9343 23.0197C27.6235 21.3875 28.3622 19.6802 29.1505 17.8977C29.9254 16.0874 30.7209 14.2844 31.537 12.4885C32.3676 10.6515 33.1976 8.84897 34.0271 7.08097C34.8844 5.29961 35.7194 3.61455 36.5322 2.0258C36.7449 1.684 37.0048 1.40511 37.3121 1.18912C37.6061 0.945298 37.9189 0.812255 38.2507 0.789991C38.5691 0.739892 38.8925 0.807252 39.221 0.992071C39.5494 1.17689 39.8411 1.49921 40.0961 1.95903C40.3109 2.33535 40.4423 2.75174 40.4902 3.20822C40.5659 3.65134 40.6282 4.06662 40.6772 4.45407C40.9522 6.23989 41.23 8.28123 41.5105 10.5781C41.8189 12.8616 42.1056 15.2069 42.3705 17.614C42.6499 19.9798 42.8954 22.3107 43.1069 24.6064C43.3463 26.8888 43.5205 28.9285 43.6296 30.7254C43.7743 32.0258 43.8701 32.9388 43.9168 33.4643C43.9636 33.9898 44.0048 34.4323 44.0404 34.7919C44.076 35.1516 44.1172 35.5941 44.164 36.1196C44.2241 36.673 44.3126 37.6065 44.4295 38.9203C44.464 40.2051 44.4406 41.2266 44.3593 41.9848C44.2914 42.7708 44.0893 43.313 43.7531 43.6114C43.5415 43.8842 43.2754 44.1146 42.9548 44.3028C42.6475 44.5188 42.314 44.6446 41.9544 44.6802C41.5948 44.7158 41.223 44.6546 40.8389 44.4965C40.4959 44.3529 40.1759 44.0784 39.8786 43.6732C39.4578 42.3683 39.1605 41.1069 38.9868 39.8888C38.8265 38.6987 38.7146 37.5024 38.6512 36.2999C38.5065 34.1434 38.3662 32.1388 38.2304 30.2861C38.1224 28.4202 38.0206 26.6026 37.9248 24.8335C37.8157 23.0365 37.7139 21.219 37.6193 19.3808C37.5246 17.5427 37.4462 15.5598 37.3838 13.4321C37.2569 13.5958 37.0721 13.9242 36.8294 14.4175C36.6145 14.8973 36.3851 15.4184 36.1413 15.9806C35.8841 16.515 35.6408 17.0427 35.4115 17.5638C35.1966 18.0436 35.0463 18.3726 34.9606 18.5508C34.9316 18.6332 34.803 18.9004 34.5748 19.3524C34.361 19.7632 34.0971 20.2837 33.7832 20.9139C33.497 21.5307 33.1753 22.2159 32.8179 22.9697C32.4471 23.6956 32.0975 24.3942 31.7691 25.0656C31.4273 25.7091 31.1278 26.298 30.8706 26.8324C30.6412 27.3535 30.4837 27.7031 30.3979 27.8812C30.241 28.1963 30.0695 28.5526 29.8836 28.95C29.7121 29.3063 29.5067 29.6275 29.2673 29.9136C29.0424 30.1586 28.7635 30.3267 28.4306 30.418C28.0977 30.5093 27.7259 30.448 27.315 30.2343C26.9064 29.8824 26.3754 29.4182 25.7218 28.8414C25.0828 28.2235 24.4298 27.6123 23.7629 27.0077C23.0826 26.3753 22.443 25.7919 21.844 25.2575C21.2451 24.7231 20.8025 24.3362 20.5164 24.0968C20.0688 23.5925 19.5383 23.0937 18.9249 22.6005C18.3392 22.0939 17.8154 21.609 17.3534 21.1459Z" fill="#A3A3A3"/>
</svg>
