<svg width="23" height="23" viewBox="0 0 23 23" fill="none" xmlns="http://www.w3.org/2000/svg">
<path d="M16.4093 23C16.1038 23 15.8107 22.8787 15.5946 22.6629C15.3785 22.447 15.2571 22.1543 15.2571 21.849V18.8564C15.2929 18.5122 15.2561 18.1643 15.1489 17.8352C15.0417 17.5061 14.8666 17.2031 14.6349 16.9458C14.4915 16.7904 14.3937 16.5985 14.3522 16.3912C14.3107 16.1839 14.3272 15.9692 14.3998 15.7707C14.4724 15.5721 14.5983 15.3974 14.7638 15.2656C14.9292 15.1338 15.1278 15.0501 15.3378 15.0236C18.1492 14.6899 20.7416 13.7921 20.7416 8.9234C20.7425 8.01421 20.4739 7.12511 19.9697 6.36821C19.5043 5.67143 19.3345 4.81882 19.4973 3.99717C19.6011 3.46118 19.6011 2.91027 19.4973 2.37427C18.6345 2.66568 17.8221 3.08889 17.0891 3.62885C16.9506 3.72716 16.7919 3.79363 16.6246 3.82348C16.4572 3.85332 16.2854 3.84582 16.1213 3.8015C14.0419 3.21456 11.8405 3.21456 9.76113 3.8015C9.59704 3.84582 9.42517 3.85332 9.25784 3.82348C9.09051 3.79363 8.93186 3.72716 8.79327 3.62885C8.05579 3.08264 7.23484 2.65899 6.36212 2.37427C6.25255 2.9097 6.25255 3.46174 6.36212 3.99717C6.51316 4.82916 6.33558 5.68726 5.86668 6.39123C5.36462 7.15344 5.09631 8.04552 5.0947 8.95793C5.0947 13.4353 7.26084 14.6323 10.5101 15.0467C10.7227 15.073 10.9237 15.1581 11.0906 15.2923C11.2575 15.4265 11.3837 15.6045 11.4549 15.8063C11.5219 16.0022 11.5347 16.2125 11.4922 16.415C11.4496 16.6176 11.3531 16.8049 11.2129 16.9573C10.9888 17.1966 10.8168 17.4797 10.7077 17.7887C10.5986 18.0978 10.5549 18.4261 10.5792 18.7528V21.849C10.5792 22.1543 10.4578 22.447 10.2417 22.6629C10.0256 22.8787 9.73257 23 9.42699 23C9.1214 23 8.82833 22.8787 8.61225 22.6629C8.39617 22.447 8.27478 22.1543 8.27478 21.849V21.1929C7.14258 21.323 5.99576 21.1715 4.93637 20.7518C3.87698 20.3321 2.93788 19.6573 2.20267 18.7874C1.82475 18.3689 1.37133 18.0253 0.86611 17.7745C0.71934 17.7367 0.581457 17.6704 0.460335 17.5794C0.339213 17.4884 0.237223 17.3744 0.160189 17.244C0.0831547 17.1136 0.0325846 16.9694 0.011366 16.8195C-0.00985264 16.6695 -0.00130405 16.5169 0.0365233 16.3703C0.0743507 16.2237 0.140716 16.0859 0.231831 15.965C0.322945 15.844 0.437024 15.7421 0.567555 15.6651C0.698085 15.5882 0.84251 15.5377 0.992584 15.5165C1.14266 15.4953 1.29544 15.5038 1.44221 15.5416C2.32854 15.8641 3.12051 16.4021 3.74662 17.1069C4.89882 18.2579 6.05103 19.2708 8.24022 18.8564C8.20172 18.2385 8.29196 17.6192 8.50522 17.0379C6.13168 16.4394 2.7442 14.7359 2.7442 8.98095C2.74117 7.61776 3.14207 6.28415 3.89641 5.14816C4.03652 4.93845 4.09018 4.68281 4.04619 4.43455C3.81337 3.19214 3.94542 1.90897 4.42642 0.739871C4.49178 0.583986 4.5907 0.444391 4.71615 0.331004C4.84161 0.217616 4.99052 0.133219 5.15231 0.0838067C5.54406 -0.0312922 6.94975 -0.26149 9.61134 1.46499C11.7659 0.947053 14.0128 0.947053 16.1674 1.46499C18.829 -0.26149 20.2347 -0.0428021 20.6149 0.0838067C20.7767 0.133219 20.9256 0.217616 21.051 0.331004C21.1765 0.444391 21.2754 0.583986 21.3408 0.739871C21.8227 1.91277 21.9548 3.19989 21.721 4.44606C21.6974 4.55834 21.6965 4.67419 21.7183 4.78683C21.74 4.89948 21.784 5.00666 21.8477 5.10212C22.6043 6.24138 23.0053 7.57931 22.9999 8.94642C22.9999 14.7819 19.6355 16.4739 17.2389 17.0033C17.45 17.621 17.5362 18.2743 17.4924 18.9255V21.849C17.4929 22.1427 17.3811 22.4254 17.1797 22.6394C16.9784 22.8534 16.7028 22.9824 16.4093 23V23Z" fill="#9F9F9F"/>
</svg>
