<svg width="43" height="43" viewBox="0 0 43 43" fill="none" xmlns="http://www.w3.org/2000/svg">
<path fill-rule="evenodd" clip-rule="evenodd" d="M0 1.54372C0 0.691145 0.691145 0 1.54372 0H16.5521C17.4046 0 18.0958 0.691145 18.0958 1.54372V20.8402C18.0958 21.6927 17.4046 22.3839 16.5521 22.3839H1.54372C0.691145 22.3839 0 21.6927 0 20.8402V1.54372Z" fill="#7A7A7A"/>
<path fill-rule="evenodd" clip-rule="evenodd" d="M24.2705 1.54372C24.2705 0.691145 24.9617 0 25.8142 0H40.8226C41.6751 0 42.3663 0.691145 42.3663 1.54372V12.264C42.3663 13.1165 41.6751 13.8077 40.8226 13.8077H25.8142C24.9617 13.8077 24.2705 13.1165 24.2705 12.264V1.54372Z" fill="#7A7A7A"/>
<path fill-rule="evenodd" clip-rule="evenodd" d="M24.2705 21.5263C24.2705 20.6737 24.9617 19.9826 25.8142 19.9826H40.8226C41.6751 19.9826 42.3663 20.6737 42.3663 21.5263V40.8228C42.3663 41.6753 41.6751 42.3665 40.8226 42.3665H25.8142C24.9617 42.3665 24.2705 41.6753 24.2705 40.8228V21.5263Z" fill="#7A7A7A"/>
<path fill-rule="evenodd" clip-rule="evenodd" d="M0 30.1025C0 29.2499 0.691145 28.5587 1.54372 28.5587H16.5521C17.4046 28.5587 18.0958 29.2499 18.0958 30.1025V40.8227C18.0958 41.6753 17.4046 42.3664 16.5521 42.3664H1.54372C0.691145 42.3664 0 41.6753 0 40.8227V30.1025Z" fill="#7A7A7A"/>
</svg>
