<svg width="42" height="41" viewBox="0 0 42 41" fill="none" xmlns="http://www.w3.org/2000/svg">
<path fill-rule="evenodd" clip-rule="evenodd" d="M29.4534 14.7468C29.4534 13.8943 30.1445 13.2031 30.9971 13.2031H32.8348C35.1939 13.2031 37.4563 14.1402 39.1244 15.8083C40.7925 17.4764 41.7296 19.7388 41.7296 22.0979C41.7296 24.4569 40.7925 26.7193 39.1244 28.3874C37.4563 30.0555 35.1939 30.9926 32.8348 30.9926H30.9971C30.1445 30.9926 29.4534 30.3015 29.4534 29.4489C29.4534 28.5963 30.1445 27.9052 30.9971 27.9052H32.8348C34.375 27.9052 35.8521 27.2933 36.9412 26.2042C38.0303 25.1152 38.6422 23.638 38.6422 22.0979C38.6422 20.5577 38.0303 19.0805 36.9412 17.9915C35.8521 16.9024 34.375 16.2905 32.8348 16.2905H30.9971C30.1445 16.2905 29.4534 15.5994 29.4534 14.7468Z" fill="#7A7A7A"/>
<path fill-rule="evenodd" clip-rule="evenodd" d="M0.0491943 14.7468C0.0491943 13.8943 0.740339 13.2031 1.59291 13.2031H30.997C31.8496 13.2031 32.5407 13.8943 32.5407 14.7468V31.2866C32.5407 33.6457 31.6036 35.9081 29.9355 37.5762C28.2674 39.2443 26.005 40.1814 23.646 40.1814H8.94394C6.5849 40.1814 4.32249 39.2443 2.6544 37.5762C0.986317 35.9081 0.0491943 33.6457 0.0491943 31.2866V14.7468ZM3.13663 16.2905V31.2866C3.13663 32.8268 3.74847 34.3039 4.83755 35.393C5.92663 36.4821 7.40374 37.094 8.94394 37.094H23.646C25.1862 37.094 26.6633 36.4821 27.7524 35.393C28.8415 34.3039 29.4533 32.8268 29.4533 31.2866V16.2905H3.13663Z" fill="#7A7A7A"/>
<path fill-rule="evenodd" clip-rule="evenodd" d="M8.94398 0.338806C9.79656 0.338806 10.4877 1.02995 10.4877 1.88252V7.39579C10.4877 8.24836 9.79656 8.93951 8.94398 8.93951C8.09141 8.93951 7.40027 8.24836 7.40027 7.39579V1.88252C7.40027 1.02995 8.09141 0.338806 8.94398 0.338806Z" fill="#7A7A7A"/>
<path fill-rule="evenodd" clip-rule="evenodd" d="M16.2949 0.338806C17.1475 0.338806 17.8387 1.02995 17.8387 1.88252V7.39579C17.8387 8.24836 17.1475 8.93951 16.2949 8.93951C15.4424 8.93951 14.7512 8.24836 14.7512 7.39579V1.88252C14.7512 1.02995 15.4424 0.338806 16.2949 0.338806Z" fill="#7A7A7A"/>
<path fill-rule="evenodd" clip-rule="evenodd" d="M23.646 0.338806C24.4986 0.338806 25.1897 1.02995 25.1897 1.88252V7.39579C25.1897 8.24836 24.4986 8.93951 23.646 8.93951C22.7934 8.93951 22.1023 8.24836 22.1023 7.39579V1.88252C22.1023 1.02995 22.7934 0.338806 23.646 0.338806Z" fill="#7A7A7A"/>
</svg>
