<svg width="24" height="24" viewBox="0 0 24 24" fill="none" xmlns="http://www.w3.org/2000/svg">
<path fill-rule="evenodd" clip-rule="evenodd" d="M13.5547 10.1681C14.0142 10.4744 14.1384 11.0953 13.8321 11.5548L10.8685 16.0001H15C15.3688 16.0001 15.7077 16.2031 15.8817 16.5282C16.0557 16.8534 16.0366 17.248 15.8321 17.5548L11.8321 23.5548C11.5257 24.0143 10.9048 24.1385 10.4453 23.8322C9.98577 23.5258 9.8616 22.9049 10.168 22.4454L13.1315 18.0001H9C8.63121 18.0001 8.29235 17.7971 8.11833 17.472C7.94431 17.1468 7.96338 16.7523 8.16795 16.4454L12.168 10.4454C12.4743 9.98588 13.0952 9.8617 13.5547 10.1681Z" fill="#56CCF2"/>
<path fill-rule="evenodd" clip-rule="evenodd" d="M8.08827 0.0463015C9.50715 -0.0981788 10.9401 0.096615 12.2689 0.614627C13.5977 1.13264 14.7844 1.95904 15.7311 3.0257C16.5039 3.89638 17.0987 4.90678 17.4852 5.99971H18.0071C19.3842 6.00133 20.7189 6.47666 21.7871 7.34592C22.8553 8.21517 23.5919 9.42543 23.8734 10.7735C24.1548 12.1216 23.9639 13.5255 23.3328 14.7496C22.7016 15.9736 21.6686 16.9432 20.4071 17.4957C19.9012 17.7173 19.3115 17.4868 19.0899 16.9809C18.8683 16.475 19.0988 15.8853 19.6047 15.6637C20.4457 15.2954 21.1344 14.649 21.5552 13.8329C21.976 13.0169 22.1032 12.081 21.9156 11.1823C21.728 10.2835 21.2369 9.47668 20.5248 8.89718C19.8127 8.31776 18.9231 8.00088 18.0051 7.99971C18.005 7.99971 18.0052 7.99971 18.0051 7.99971H16.7459C16.2899 7.99971 15.8917 7.69125 15.7777 7.24975C15.5003 6.1757 14.9717 5.18295 14.2353 4.35332C13.499 3.52369 12.576 2.88094 11.5425 2.47804C10.5089 2.07515 9.39445 1.92364 8.29088 2.03601C7.18731 2.14839 6.12624 2.52142 5.19514 3.12437C4.26404 3.72732 3.48956 4.54292 2.93555 5.50395C2.38153 6.46497 2.06384 7.5439 2.00867 8.65181C1.95349 9.75971 2.1624 10.8649 2.61818 11.8762C3.07397 12.8875 3.76357 13.776 4.63016 14.4685C5.06161 14.8133 5.13188 15.4425 4.78711 15.874C4.44234 16.3054 3.81308 16.3757 3.38163 16.0309C2.26745 15.1406 1.38082 13.9982 0.794809 12.698C0.208801 11.3977 -0.0598009 9.97677 0.0111423 8.55232C0.0820855 7.12787 0.490543 5.74068 1.20285 4.50507C1.91515 3.26947 2.91091 2.22084 4.10804 1.44562C5.30517 0.670399 6.66939 0.190782 8.08827 0.0463015Z" fill="#56CCF2"/>
</svg>
