<svg width="43" height="43" viewBox="0 0 43 43" fill="none" xmlns="http://www.w3.org/2000/svg">
<path fill-rule="evenodd" clip-rule="evenodd" d="M0 1.56926C0 0.702581 0.702581 0 1.56926 0H16.826C17.6926 0 18.3952 0.702581 18.3952 1.56926V21.185C18.3952 22.0517 17.6926 22.7543 16.826 22.7543H1.56926C0.702581 22.7543 0 22.0517 0 21.185V1.56926ZM3.13852 3.13852V19.6157H15.2567V3.13852H3.13852Z" fill="#7A7A7A"/>
<path fill-rule="evenodd" clip-rule="evenodd" d="M23.9749 1.56926C23.9749 0.702581 24.6774 0 25.5441 0H40.8008C41.6675 0 42.3701 0.702581 42.3701 1.56926V12.4669C42.3701 13.3336 41.6675 14.0362 40.8008 14.0362H25.5441C24.6774 14.0362 23.9749 13.3336 23.9749 12.4669V1.56926ZM27.1134 3.13852V10.8976H39.2315V3.13852H27.1134Z" fill="#7A7A7A"/>
<path fill-rule="evenodd" clip-rule="evenodd" d="M23.9749 21.185C23.9749 20.3183 24.6774 19.6158 25.5441 19.6158H40.8008C41.6675 19.6158 42.3701 20.3183 42.3701 21.185V40.8008C42.3701 41.6674 41.6675 42.37 40.8008 42.37H25.5441C24.6774 42.37 23.9749 41.6674 23.9749 40.8008V21.185ZM27.1134 22.7543V39.2315H39.2315V22.7543H27.1134Z" fill="#7A7A7A"/>
<path fill-rule="evenodd" clip-rule="evenodd" d="M0 29.9031C0 29.0364 0.702581 28.3338 1.56926 28.3338H16.826C17.6926 28.3338 18.3952 29.0364 18.3952 29.9031V40.8007C18.3952 41.6674 17.6926 42.37 16.826 42.37H1.56926C0.702581 42.37 0 41.6674 0 40.8007V29.9031ZM3.13852 31.4724V39.2315H15.2567V31.4724H3.13852Z" fill="#7A7A7A"/>
</svg>
